<svg xmlns="http://www.w3.org/2000/svg" xmlns:xlink="http://www.w3.org/1999/xlink" width="500" zoomAndPan="magnify" viewBox="0 0 375 374.999991" height="500" preserveAspectRatio="xMidYMid meet" version="1.0"><defs><clipPath id="bc909baf33"><path d="M 129 37.5 L 305.792969 37.5 L 305.792969 217 L 129 217 Z M 129 37.5 " clip-rule="nonzero"/></clipPath><clipPath id="36d518ded6"><path d="M 69.542969 133 L 257 133 L 257 317.25 L 69.542969 317.25 Z M 69.542969 133 " clip-rule="nonzero"/></clipPath><clipPath id="9359a92e8e"><path d="M 69.542969 133 L 239 133 L 239 317.25 L 69.542969 317.25 Z M 69.542969 133 " clip-rule="nonzero"/></clipPath></defs><rect x="-37.5" width="450" fill="#ffffff" y="-37.499999" height="449.999989" fill-opacity="1"/><rect x="-37.5" width="450" fill="#0d0840" y="-37.499999" height="449.999989" fill-opacity="1"/><g clip-path="url(#bc909baf33)"><path fill="#f7b731" d="M 305.636719 83.714844 L 305.636719 216.066406 L 256.988281 216.066406 C 256.988281 206.449219 255.394531 198.425781 252.277344 191.863281 C 249.15625 185.296875 244.976562 179.929688 239.867188 175.617188 C 234.6875 171.375 229.046875 167.792969 222.941406 165.007812 C 217.167969 162.355469 211.394531 160.035156 205.554688 158.046875 C 205.222656 157.914062 204.824219 157.78125 204.492188 157.648438 C 198.320312 155.527344 192.613281 153.472656 187.4375 151.347656 C 182.257812 149.226562 178.144531 146.773438 175.027344 143.921875 C 171.90625 141.070312 170.3125 137.226562 170.3125 132.519531 C 170.3125 127.480469 172.4375 123.566406 176.617188 120.847656 C 180.800781 118.128906 186.507812 116.804688 193.675781 116.804688 C 200.84375 116.804688 207.214844 118.195312 212.921875 120.980469 C 218.628906 123.765625 224.203125 128.074219 229.84375 133.777344 L 256.589844 107.320312 C 249.621094 99.496094 240.726562 93.265625 229.976562 88.753906 C 219.226562 84.246094 207.414062 81.925781 194.472656 81.925781 C 181.730469 81.925781 170.445312 84.046875 160.691406 88.359375 C 150.933594 92.601562 143.300781 98.902344 137.792969 107.054688 C 133.945312 112.824219 131.421875 119.324219 130.292969 126.617188 C 130.160156 127.613281 130.027344 128.671875 129.894531 129.734375 C 129.761719 130.859375 129.695312 131.988281 129.628906 133.179688 L 129.628906 37.5 L 259.511719 37.5 C 284.929688 37.5 305.636719 58.1875 305.636719 83.714844 Z M 305.636719 83.714844 " fill-opacity="1" fill-rule="nonzero"/></g><g clip-path="url(#36d518ded6)"><path fill="#45aaf2" d="M 256.988281 216.066406 L 256.988281 317.183594 L 115.960938 317.183594 C 90.40625 317.183594 69.703125 296.496094 69.703125 270.96875 L 69.703125 133.378906 L 129.5 133.378906 C 129.433594 134.441406 129.433594 135.503906 129.433594 136.5625 C 129.433594 145.980469 131.023438 153.804688 134.144531 159.96875 C 137.261719 166.136719 141.445312 171.308594 146.554688 175.417969 C 151.730469 179.53125 157.304688 182.910156 163.476562 185.628906 C 169.582031 188.347656 175.753906 190.734375 181.925781 192.859375 C 188.101562 194.980469 193.808594 197.101562 198.984375 199.421875 C 204.160156 201.675781 208.273438 204.394531 211.394531 207.511719 C 214.511719 210.628906 216.105469 214.738281 216.105469 219.777344 C 216.105469 225.347656 213.71875 229.722656 208.871094 232.839844 C 204.09375 235.957031 197.324219 237.546875 188.5625 237.546875 C 178.941406 237.546875 170.511719 235.691406 163.277344 231.914062 C 156.042969 228.132812 149.40625 222.894531 143.5 216.066406 L 116.820312 242.523438 C 125.914062 252.667969 135.871094 260.160156 146.820312 265.132812 C 157.703125 270.105469 170.777344 272.558594 185.976562 272.558594 C 208.140625 272.558594 225.53125 267.519531 238.074219 257.507812 C 250.683594 247.496094 256.988281 233.703125 256.988281 216.066406 Z M 256.988281 216.066406 " fill-opacity="1" fill-rule="nonzero"/></g><path fill="#45aaf2" d="M 130.160156 126.816406 C 130.027344 127.808594 129.894531 128.871094 129.761719 129.933594 C 129.628906 129.667969 129.566406 129.46875 129.5 129.269531 C 129.300781 128.671875 129.300781 128.140625 129.5 127.742188 C 129.628906 127.347656 129.828125 127.015625 130.160156 126.816406 Z M 130.160156 126.816406 " fill-opacity="1" fill-rule="nonzero"/><path fill="#e09717" d="M 229.710938 133.910156 L 205.488281 158.113281 C 205.15625 157.980469 204.757812 157.847656 204.425781 157.714844 C 198.253906 155.59375 192.546875 153.539062 187.371094 151.414062 C 182.191406 149.292969 178.078125 146.839844 174.960938 143.988281 C 171.839844 141.136719 170.246094 137.292969 170.246094 132.585938 C 170.246094 127.546875 172.371094 123.632812 176.550781 120.914062 C 180.734375 118.195312 186.441406 116.871094 193.609375 116.871094 C 200.777344 116.871094 207.148438 118.261719 212.855469 121.046875 C 218.496094 123.898438 224.136719 128.140625 229.710938 133.910156 Z M 229.710938 133.910156 " fill-opacity="1" fill-rule="nonzero"/><g clip-path="url(#9359a92e8e)"><path fill="#3a84ef" d="M 238.140625 257.574219 L 178.410156 317.25 L 115.960938 317.25 C 90.40625 317.183594 69.703125 296.496094 69.703125 270.96875 L 69.703125 193.058594 L 129.5 133.3125 C 129.433594 134.375 129.433594 135.4375 129.433594 136.496094 C 129.433594 145.914062 131.023438 153.738281 134.144531 159.902344 C 137.261719 166.070312 141.445312 171.242188 146.554688 175.351562 C 151.730469 179.464844 157.304688 182.84375 163.476562 185.5625 C 169.582031 188.28125 175.753906 190.667969 181.925781 192.792969 C 188.101562 194.914062 193.808594 197.035156 198.984375 199.355469 C 204.160156 201.609375 208.273438 204.328125 211.394531 207.445312 C 214.511719 210.5625 216.105469 214.671875 216.105469 219.710938 C 216.105469 225.28125 213.71875 229.65625 208.871094 232.773438 C 204.09375 235.890625 197.324219 237.484375 188.5625 237.484375 C 178.941406 237.484375 170.511719 235.625 163.277344 231.847656 C 156.042969 228.066406 149.40625 222.828125 143.5 216 L 116.820312 242.523438 C 125.914062 252.667969 135.871094 260.160156 146.820312 265.132812 C 157.703125 270.105469 170.777344 272.558594 185.976562 272.558594 C 208.140625 272.558594 225.53125 267.585938 238.140625 257.574219 Z M 238.140625 257.574219 " fill-opacity="1" fill-rule="nonzero"/></g></svg>